<svg width="34" height="34" xmlns="http://www.w3.org/2000/svg">
 <!-- Created with SVG-edit - http://svg-edit.googlecode.com/ -->
 <g>
  <title>Layer 1</title>
  <path fill="#ffffff" stroke="#000000" stroke-width="0" stroke-linejoin="bevel" stroke-linecap="square" d="m33.765598,29.2883l-9.029999,-9.0299c1.216501,-2.006001 1.93,-4.3528 1.9312,-6.8695c-0.001299,-7.34081 -5.945601,-13.28646 -13.2827,-13.28899c-7.33825,0.00253 -13.28516,5.94818 -13.28516,13.28779c0,7.3357 5.94692,13.2814 13.28516,13.2814c2.518,0 4.864799,-0.713499 6.8708,-1.93l9.032499,9.031301l4.478199,-4.482101l0,0zm-28.599178,-15.900599c0.0076,-4.53912 3.67865,-8.20891 8.21648,-8.21904c4.5352,0.01014 8.208799,3.67992 8.2164,8.21904c-0.008801,4.5365 -3.6812,8.2063 -8.2164,8.216399c-4.53784,-0.010099 -8.20888,-3.679899 -8.21648,-8.216399z" id="svg_5"/>
 </g>
</svg>