<svg width="34" height="34" xmlns="http://www.w3.org/2000/svg">
 <!-- Created with SVG-edit - http://svg-edit.googlecode.com/ -->
 <g>
  <path id="svg_5" d="m33.84893,29.2883l-9.029997,-9.0299c1.216501,-2.006001 1.93,-4.3528 1.9312,-6.8695c-0.001299,-7.34081 -5.945601,-13.28646 -13.282701,-13.28899c-7.33825,0.00253 -13.28516,5.94818 -13.28516,13.28779c0,7.3357 5.94692,13.2814 13.28516,13.2814c2.518,0 4.864799,-0.713499 6.870802,-1.93l9.032497,9.031301l4.478199,-4.482101l0,0zm-28.599176,-15.900599c0.0076,-4.53912 3.678649,-8.20891 8.21648,-8.21904c4.5352,0.01014 8.208801,3.67992 8.2164,8.21904c-0.008801,4.5365 -3.6812,8.2063 -8.2164,8.216399c-4.53784,-0.010099 -8.20888,-3.679899 -8.21648,-8.216399z" stroke-linecap="square" stroke-linejoin="bevel" stroke-width="0" stroke="#000000" fill="#ffb800"/>
 </g>
</svg>